<mxfile host="app.diagrams.net" modified="2024-11-06T13:18:35.905Z" agent="Mozilla/5.0 (Macintosh; Intel Mac OS X 10_15_7) AppleWebKit/537.36 (KHTML, like Gecko) Chrome/130.0.0.0 Safari/537.36" version="23.1.6" etag="4SawF_MjXb2UpM9ixGH1" type="github">
  <diagram name="Page-1" id="Y6oBa4KJUN9kO4ramoeD">
    <mxGraphModel>
      <root>
        <mxCell id="0" />
        <mxCell id="1" parent="0" />
      </root>
    </mxGraphModel>
  </diagram>
</mxfile>
